<svg width="19" height="25" viewBox="0 0 19 25" fill="none" xmlns="http://www.w3.org/2000/svg">
<path d="M9.48264 0C4.43046 0 0.320312 4.11015 0.320312 9.16233C0.320312 11.4832 1.78268 14.7623 4.66697 18.9087C6.77516 21.9397 8.84864 24.2851 8.936 24.3835L9.48264 25L10.0295 24.3835C10.1166 24.2851 12.1901 21.9397 14.2985 18.9087C17.1826 14.7623 18.6452 11.4832 18.6452 9.16233C18.6452 4.11015 14.5348 0 9.48264 0ZM13.1066 18.0622C11.6816 20.1122 10.2414 21.8765 9.48264 22.7766C8.72581 21.879 7.29091 20.1214 5.86688 18.074C3.1945 14.2323 1.78191 11.1506 1.78191 9.16233C1.78191 4.91619 5.2365 1.4616 9.48264 1.4616C13.729 1.4616 17.1834 4.91619 17.1834 9.16233C17.1834 11.1485 15.7737 14.226 13.1066 18.0622Z" fill="#C8A35F"/>
</svg>
